<svg xmlns="http://www.w3.org/2000/svg" width="75" height="36" viewBox="0 0 75 36" fill="none">
  <path d="M65.5625 35.5C62.8151 35.5 60.7122 34.6732 59.2539 33.0195C57.8086 31.3529 57.0859 28.9505 57.0859 25.8125V9.48438C57.0859 6.54167 57.8021 4.30859 59.2344 2.78516C60.6797 1.26172 62.7891 0.5 65.5625 0.5C68.3359 0.5 70.4388 1.26172 71.8711 2.78516C73.3164 4.30859 74.0391 6.54167 74.0391 9.48438V25.8125C74.0391 28.9505 73.3099 31.3529 71.8516 33.0195C70.4062 34.6732 68.3099 35.5 65.5625 35.5ZM65.6211 29.1719C66.6628 29.1719 67.1836 28.1628 67.1836 26.1445V9.36719C67.1836 7.67448 66.6758 6.82812 65.6602 6.82812C64.5143 6.82812 63.9414 7.69401 63.9414 9.42578V26.1836C63.9414 27.2513 64.0716 28.0195 64.332 28.4883C64.5924 28.944 65.0221 29.1719 65.6211 29.1719Z" fill="white"/>
  <path d="M46.3047 35.5C44.7552 35.5 43.3424 35.2005 42.0664 34.6016C40.7904 34.0026 39.7747 33.1172 39.0195 31.9453C38.2773 30.7604 37.9062 29.3086 37.9062 27.5898V18.9766H44.7031V27.1797C44.7031 27.7786 44.8203 28.2604 45.0547 28.625C45.3021 28.9896 45.6927 29.1719 46.2266 29.1719C47.2552 29.1719 47.7695 28.5404 47.7695 27.2773V0.8125H54.7031V26.5938C54.7031 28.4167 54.3451 29.9987 53.6289 31.3398C52.9128 32.668 51.9232 33.6966 50.6602 34.4258C49.3971 35.1419 47.9453 35.5 46.3047 35.5Z" fill="white"/>
  <path d="M18.3359 35.1875L21.6562 0.8125H33.3164L36.5781 35.1875H30.0742L29.5859 29.6406H25.4453L25.0156 35.1875H18.3359ZM25.9336 24.1523H29.0586L27.5547 6.67188H27.2422L25.9336 24.1523Z" fill="white"/>
  <path d="M0.367188 35.1875V0.8125H7.16406V14.582L10.3672 0.8125H17.2812L13.4336 16.5547L18.082 35.1875H10.9531L7.20312 18.5469V35.1875H0.367188Z" fill="white"/>
</svg>